{"title":"300 Rise Of An Empire 2014 WEBRip XviD AC3-N3kr4","uid":10294265,"size":2223588880,"categoryP":"video","categoryS":"hd___movies","magnet":"?xt=urn:btih:7b3b1d9172902e2b1458b40657442cf24412fd0c&amp;dn=300+Rise+Of+An+Empire+2014+WEBRip+XviD+AC3-N3kr4&amp;tr=udp%3A%2F%2Ftracker.openbittorrent.com%3A80&amp;tr=udp%3A%2F%2Fopen.demonii.com%3A1337&amp;tr=udp%3A%2F%2Ftracker.coppersurfer.tk%3A6969&amp;tr=udp%3A%2F%2Fexodus.desync.com%3A6969","seeders":1,"leechers":0,"uploader":"Falcon.G13","files":2,"time":1401901685,"description":"300: Rise of an Empire (2014)\n 102 min - Action | Drama | Fantasy - 7 March 2014 (USA)\n6.7 Your rating: -/10 Ratings: 6.7/10 from 87,313 users Metascore: 48/100 \nReviews: 355 user | 301 critic | 34 from Metacritic.com\n\nGreek general Themistokles leads the charge against\n invading Persian forces led by mortal-turned-god \nXerxes and Artemisia, vengeful commander of the \nPersian navy.\n &lt;a href=&quot;\nhttp://i.imgur.com/OpjBh0V.jpg&quot; rel=&quot;nofollow&quot; target=&quot;_NEW&quot;&gt;\nhttp://i.imgur.com/OpjBh0V.jpg&lt;/a&gt; &lt;a href=&quot;\nhttp://i.imgur.com/NM4IKOW.jpg&quot; rel=&quot;nofollow&quot; target=&quot;_NEW&quot;&gt;\nhttp://i.imgur.com/NM4IKOW.jpg&lt;/a&gt; &lt;a href=&quot;\nhttp://i.imgur.com/PNviyAX.jpg&quot; rel=&quot;nofollow&quot; target=&quot;_NEW&quot;&gt;\nhttp://i.imgur.com/PNviyAX.jpg&lt;/a&gt; &lt;a href=&quot;\nhttp://i.imgur.com/QmmVrm1.jpg&quot; rel=&quot;nofollow&quot; target=&quot;_NEW&quot;&gt;\nhttp://i.imgur.com/QmmVrm1.jpg&lt;/a&gt; &lt;a href=&quot;\nhttp://i.imgur.com/K0pFgVX.jpg&quot; rel=&quot;nofollow&quot; target=&quot;_NEW&quot;&gt;\nhttp://i.imgur.com/K0pFgVX.jpg&lt;/a&gt; &lt;a href=&quot;\nhttp://i.imgur.com/zKQ75IW.jpg&quot; rel=&quot;nofollow&quot; target=&quot;_NEW&quot;&gt;\nhttp://i.imgur.com/zKQ75IW.jpg&lt;/a&gt; &lt;a href=&quot;\nhttp://i.imgur.com/pJvJ9UK.jpg&quot; rel=&quot;nofollow&quot; target=&quot;_NEW&quot;&gt;\nhttp://i.imgur.com/pJvJ9UK.jpg&lt;/a&gt; &lt;a href=&quot;\nhttp://i.imgur.com/L6StcFB.jpg&quot; rel=&quot;nofollow&quot; target=&quot;_NEW&quot;&gt;\nhttp://i.imgur.com/L6StcFB.jpg&lt;/a&gt;\n\nGeneral\nComplete name : 300 Rise Of An Empire 2014 WEBRip XviD AC3-N3kr4.avi\nFormat : AVI\nFormat/Info : Audio Video Interleave\nFormat profile : OpenDML\nFile size : 2.07 GiB\nDuration : 1h 42mn\nOverall bit rate : 2 889 Kbps\nWriting application : Lavf55.7.100\n\nVideo\nID : 0\nFormat : MPEG-4 Visual\nFormat profile : Advanced Simple@L1\nFormat settings, BVOP : No\nFormat settings, QPel : No\nFormat settings, GMC : No warppoints\nFormat settings, Matrix : Default (H.263)\nCodec ID : XVID\nCodec ID/Hint : XviD\nDuration : 1h 42mn\nBit rate : 2 239 Kbps\nWidth : 720 pixels\nHeight : 304 pixels\nDisplay aspect ratio : 2.35:1\nFrame rate : 23.976 fps\nColor space : YUV\nChroma subsampling : 4:2:0\nBit depth : 8 bits\nScan type : Progressive\nCompression mode : Lossy\nBits/(Pixel*Frame) : 0.427\nStream size : 1.60 GiB (77%)\nWriting library : Lavc55.12.100\n\nAudio\nID : 1\nFormat : AC-3\nFormat/Info : Audio Coding 3\nMode extension : CM (complete main)\nFormat settings, Endianness : Big\nCodec ID : 2000\nDuration : 1h 42mn\nBit rate mode : Constant\nBit rate : 640 Kbps\nChannel(s) : 6 channels\nChannel positions : Front: L C R, Side: L R, LFE\nSampling rate : 48.0 KHz\nBit depth : 16 bits\nCompression mode : Lossy\nStream size : 470 MiB (22%)\nAlignment : Aligned on interleaves\nInterleave, duration : 32 ms (0.77 video frame)\nInterleave, preload duration : 32 ms","torrent":{"xt":"urn:btih:7b3b1d9172902e2b1458b40657442cf24412fd0c","amp;dn":"300+Rise+Of+An+Empire+2014+WEBRip+XviD+AC3-N3kr4","amp;tr":["udp%3A%2F%2Ftracker.openbittorrent.com%3A80","udp%3A%2F%2Fopen.demonii.com%3A1337","udp%3A%2F%2Ftracker.coppersurfer.tk%3A6969","udp%3A%2F%2Fexodus.desync.com%3A6969"],"infoHash":"7b3b1d9172902e2b1458b40657442cf24412fd0c","infoHashBuffer":{"type":"Buffer","data":[123,59,29,145,114,144,46,43,20,88,180,6,87,68,44,242,68,18,253,12]},"announce":[],"urlList":[]}}